<svg width="96" height="43" viewBox="0 0 96 43" fill="none" xmlns="http://www.w3.org/2000/svg">
<path d="M92.5024 6.797V11.3547C92.5024 11.5085 92.3785 11.6321 92.2244 11.6321H82.4521C82.3088 11.6321 82.2274 11.4691 82.3134 11.3547L83.122 10.2804C83.2529 10.1057 83.4589 10.0029 83.6773 10.0029H90.5918C90.7459 10.0029 90.8698 9.87925 90.8698 9.72545V6.797C90.8698 6.64397 90.7459 6.51953 90.5918 6.51953H82.2492C81.8115 6.51953 81.3995 6.72512 81.137 7.07523L75.426 14.6819C75.2889 14.8651 75.4198 15.1256 75.6482 15.1256H95.7158C95.8691 15.1256 95.9938 15.0019 95.9938 14.8481V6.797C95.9938 6.64397 95.8691 6.51953 95.7158 6.51953H92.7805C92.6271 6.51953 92.5024 6.64397 92.5024 6.797Z" fill="white"/>
<path d="M92.2249 20.212L82.4355 20.1996C82.2914 20.1988 82.2093 20.3635 82.2968 20.4778L83.1155 21.5468C83.2472 21.7237 83.4539 21.8281 83.6746 21.8281H90.5915C90.7456 21.8281 90.8696 21.9525 90.8696 22.1055V25.0309C90.8696 25.1839 90.7456 25.3084 90.5915 25.3084H82.2287C81.7919 25.3084 81.3799 25.1028 81.1174 24.7542L75.4264 17.1892C75.2886 17.0068 75.4195 16.7456 75.6488 16.7456H95.7155C95.8688 16.7456 95.9935 16.87 95.9935 17.0231V25.0309C95.9935 25.1839 95.8688 25.3084 95.7155 25.3084H92.7802C92.6268 25.3084 92.5021 25.1839 92.5021 25.0309V20.4894C92.5021 20.3364 92.3782 20.212 92.2249 20.212Z" fill="white"/>
<path d="M52.3172 26.938H56.9765C57.8509 26.938 58.6749 26.5276 59.2 25.8297L66.5018 16.1223C66.5948 15.9994 66.5948 15.8293 66.5018 15.7065L59.2 5.99906C58.6749 5.30115 57.8509 4.89075 56.9765 4.89075H52.3172C52.0679 4.89075 51.8657 4.68903 51.8657 4.44016V0.950592C51.8657 0.701721 52.0679 0.5 52.3172 0.5H58.3899C59.9203 0.5 61.3616 1.21878 62.2801 2.43993L69.3155 11.7918C69.427 11.9394 69.6493 11.9394 69.76 11.7918L76.7954 2.43993C77.7139 1.21878 79.1552 0.5 80.6856 0.5H95.5416C95.7918 0.5 95.9939 0.701721 95.9939 0.950592V4.44016C95.9939 4.68903 95.7918 4.89075 95.5416 4.89075H82.0549C81.1805 4.89075 80.3572 5.30115 79.8321 5.99906L62.236 29.3888C61.3175 30.6099 59.8761 31.3287 58.3458 31.3287H52.3172C52.0679 31.3287 51.8657 31.127 51.8657 30.8782V27.3886C51.8657 27.1397 52.0679 26.938 52.3172 26.938Z" fill="white"/>
<path d="M76.7954 29.3888L70.7761 21.3879C70.6553 21.2271 70.6553 21.0069 70.7761 20.8461L73.2297 17.5853C73.3404 17.4377 73.5627 17.4377 73.6743 17.5853L79.8763 25.8297C80.4014 26.5276 81.2247 26.938 82.099 26.938H95.5416C95.7918 26.938 95.9939 27.1397 95.9939 27.3886V30.8781C95.9939 31.127 95.7918 31.3287 95.5416 31.3287H80.6856C79.1552 31.3287 77.7139 30.6099 76.7954 29.3888Z" fill="white"/>
<path d="M33.6918 18.1094H48.4255C48.6749 18.1094 48.877 17.9076 48.877 17.6588V14.17C48.877 13.9211 48.6749 13.7194 48.4255 13.7194H33.6918C33.5385 13.7194 33.4138 13.5949 33.4138 13.4419V5.16821C33.4138 5.01517 33.5385 4.89075 33.6918 4.89075H49.7816C50.031 4.89075 50.2331 4.68903 50.2331 4.44016V0.950592C50.2331 0.701721 50.031 0.5 49.7816 0.5H29.1549C28.9056 0.5 28.7026 0.701721 28.7026 0.950592V30.8782C28.7026 31.127 28.9056 31.3287 29.1549 31.3287H49.7816C50.031 31.3287 50.2331 31.127 50.2331 30.8782V27.3886C50.2331 27.1397 50.031 26.938 49.7816 26.938H33.6918C33.5385 26.938 33.4138 26.8136 33.4138 26.6605V18.3868C33.4138 18.2338 33.5385 18.1094 33.6918 18.1094Z" fill="white"/>
<path d="M27.0592 30.957L16.1089 0.798332C16.0438 0.619026 15.8727 0.5 15.6814 0.5H11.6355C11.445 0.5 11.2746 0.618248 11.2088 0.795242L0.0175677 30.9554C-0.0498166 31.1363 0.0849519 31.3287 0.280117 31.3287H4.4499C4.64352 31.3287 4.81622 31.2066 4.87974 31.025L7.97377 22.1384C8.01249 22.0263 8.1186 21.9513 8.23787 21.9513H18.9876C19.1069 21.9513 19.213 22.0263 19.2517 22.1384L22.3458 31.025C22.4093 31.2066 22.5812 31.3287 22.7756 31.3287H26.7959C26.9895 31.3287 27.1243 31.1378 27.0592 30.957ZM9.64742 17.3303L13.447 6.41487C13.5012 6.25952 13.7235 6.25952 13.7777 6.41487L17.5781 17.3303C17.6176 17.4431 17.5332 17.5606 17.4131 17.5606H9.81238C9.69234 17.5606 9.60792 17.4431 9.64742 17.3303Z" fill="white"/>
<path d="M0 42.3823V35.7417H2.29941L3.47354 40.5854L4.64841 35.7417H6.94783V42.3823H5.59716V37.2457H5.45077L4.14886 42.0894H2.79896L1.49706 37.2457H1.3507V42.3823H0Z" fill="white"/>
<path d="M7.8374 42.3823L9.33525 35.7417H11.8988L13.3958 42.3823H12.0451L11.7811 41.1812H9.45219L9.1881 42.3823H7.8374ZM10.3816 36.8554L9.70699 40.0096H11.527L10.8517 36.8554H10.3816Z" fill="white"/>
<path d="M15.6373 40.1556V42.3823H14.2874V35.7417H16.8702C18.4362 35.7417 19.2192 36.4713 19.2192 37.929C19.2192 38.7954 18.8924 39.433 18.2403 39.8434L19.1898 42.3823H17.7121L16.9392 40.1556H15.6373ZM17.6044 38.7103C17.7609 38.5156 17.8391 38.2582 17.8391 37.939C17.8391 37.6206 17.7562 37.3663 17.5897 37.1777C17.4232 36.9883 17.1839 36.8941 16.8702 36.8941H15.6373V39.0033H16.8904C17.2094 39.0033 17.448 38.9059 17.6044 38.7103Z" fill="white"/>
<path d="M21.7042 42.3823H20.3535V35.7417H21.7042V38.6617L22.6042 38.5643L23.7 35.7417H25.2366L23.7883 39.0721L25.2761 42.3823H23.7202L22.6042 39.736L21.7042 39.8333V42.3823Z" fill="white"/>
<path d="M26.1565 42.3823V35.7417H30.4618V36.9134H27.5064V38.4661H29.8748V39.6185H27.5064V41.2106H30.4618V42.3823H26.1565Z" fill="white"/>
<path d="M30.9797 36.9335V35.7417H35.8729V36.9335H34.1117V42.3823H32.761V36.9335H30.9797Z" fill="white"/>
<path d="M38.7699 36.7967C38.0582 36.7967 37.7027 37.0309 37.7027 37.5C37.7027 37.7079 37.791 37.8679 37.9676 37.9784C38.1434 38.0889 38.5562 38.2482 39.2052 38.4568C39.8542 38.6647 40.3088 38.9012 40.5698 39.1648C40.8308 39.4284 40.9617 39.8333 40.9617 40.3805C40.9617 41.0769 40.7495 41.6048 40.3258 41.9626C39.9014 42.3205 39.3469 42.4998 38.6623 42.4998C38.1534 42.4998 37.53 42.4217 36.7927 42.2648L36.4403 42.1968L36.5774 41.1519C37.4518 41.2693 38.1201 41.3273 38.584 41.3273C39.2749 41.3273 39.6211 41.0414 39.6211 40.4686C39.6211 40.26 39.5413 40.0969 39.381 39.9802C39.2214 39.8627 38.9031 39.736 38.4268 39.5992C37.6702 39.3843 37.1373 39.1292 36.8275 38.8325C36.517 38.5364 36.3621 38.1245 36.3621 37.5974C36.3621 36.9335 36.5642 36.4388 36.9692 36.1127C37.3735 35.7873 37.9281 35.625 38.6328 35.625C39.1153 35.625 39.7287 35.6899 40.4722 35.8198L40.8246 35.8885L40.7169 36.9528C39.7969 36.8485 39.1479 36.7967 38.7699 36.7967Z" fill="white"/>
<path d="M43.9685 36.9335V35.7417H48.8609V36.9335H47.0997V42.3823H45.7498V36.9335H43.9685Z" fill="white"/>
<path d="M53.5384 42.3823V39.6285H51.0624V42.3823H49.7117V35.7417H51.0624V38.4568H53.5384V35.7417H54.8883V42.3823H53.5384Z" fill="white"/>
<path d="M55.7791 42.3823L57.2761 35.7417H59.8396L61.3375 42.3823H59.9868L59.7227 41.1812H57.3938L57.1297 42.3823H55.7791ZM58.3232 36.8554L57.6479 40.0096H59.4679L58.7933 36.8554H58.3232Z" fill="white"/>
<path d="M61.2688 36.9335V35.7417H66.162V36.9335H64.4V42.3823H63.0501V36.9335H61.2688Z" fill="white"/>
<path d="M68.9927 35.7417H70.4115L71.234 41.2299H71.3804L72.5746 35.7417H74.1398L75.3341 41.2299H75.4805L76.303 35.7417H77.7218L76.4493 42.3823H74.4039L73.3568 37.3338L72.3105 42.3823H70.2651L68.9927 35.7417Z" fill="white"/>
<path d="M83.2352 41.6743C82.8208 42.2246 82.1083 42.4998 81.0976 42.4998C80.0862 42.4998 79.3736 42.2246 78.9593 41.6743C78.5449 41.1241 78.3381 40.2631 78.3381 39.0914C78.3381 37.9197 78.5449 37.0486 78.9593 36.479C79.3736 35.9094 80.0862 35.625 81.0976 35.625C82.1083 35.625 82.8208 35.9094 83.2352 36.479C83.6495 37.0486 83.8571 37.9197 83.8571 39.0914C83.8571 40.2631 83.6495 41.1241 83.2352 41.6743ZM80.0157 40.8149C80.2085 41.1565 80.5687 41.3273 81.0976 41.3273C81.6258 41.3273 81.9859 41.1565 82.1788 40.8149C82.3708 40.4733 82.4676 39.9006 82.4676 39.096C82.4676 38.2922 82.3693 37.7079 82.1733 37.3431C81.9782 36.9791 81.6188 36.7967 81.0976 36.7967C80.5756 36.7967 80.2162 36.9791 80.0211 37.3431C79.8251 37.7079 79.7276 38.2922 79.7276 39.096C79.7276 39.9006 79.8236 40.4733 80.0157 40.8149Z" fill="white"/>
<path d="M86.3617 40.1556V42.3823H85.011V35.7417H87.5946C89.1606 35.7417 89.9429 36.4713 89.9429 37.929C89.9429 38.7954 89.6168 39.433 88.9647 39.8434L89.9142 42.3823H88.4365L87.6636 40.1556H86.3617ZM88.3289 38.7103C88.4853 38.5156 88.5635 38.2582 88.5635 37.939C88.5635 37.6206 88.4807 37.3663 88.3141 37.1777C88.1476 36.9883 87.9075 36.8941 87.5946 36.8941H86.3617V39.0033H87.614C87.9339 39.0033 88.1724 38.9059 88.3289 38.7103Z" fill="white"/>
<path d="M92.4288 42.3823H91.0781V35.7417H92.4288V38.6617L93.3288 38.5643L94.4246 35.7417H95.9612L94.5129 39.0721L95.9999 42.3823H94.444L93.3288 39.736L92.4288 39.8333V42.3823Z" fill="white"/>
</svg>
